HIERARCHY
ROOT Hips
{
  OFFSET 50.6965 102.792 -16.4414
  CHANNELS 6 Xposition Yposition Zposition Zrotation Xrotation Yrotation
  JOINT RightUpLeg
  {
    OFFSET -9 6.86154e-007 -3.19544e-009
    CHANNELS 6 Xposition Yposition Zposition Zrotation Xrotation Yrotation
    JOINT RightLowLeg
    {
      OFFSET 0.575 -51.4311 3.90177
      CHANNELS 6 Xposition Yposition Zposition Zrotation Xrotation Yrotation
      JOINT RightFoot
      {
        OFFSET -7.46079e-007 -43.5882 -3.90177
        CHANNELS 6 Xposition Yposition Zposition Zrotation Xrotation Yrotation
        End Site
        {
          OFFSET 4.66716e-007 -6.93413 15.0046
        }
      }
    }
  }
  JOINT Chest
  {
    OFFSET 1.23234e-007 14.8421 1.27319e-009
    CHANNELS 6 Xposition Yposition Zposition Zrotation Xrotation Yrotation
    JOINT Neck
    {
      OFFSET 0.51659 29.8236 6.51843
      CHANNELS 6 Xposition Yposition Zposition Zrotation Xrotation Yrotation
      JOINT Head
      {
        OFFSET 1.16803e-007 7.47049 6.44171e-007
        CHANNELS 6 Xposition Yposition Zposition Zrotation Xrotation Yrotation
        End Site
        {
          OFFSET -4.32676e-008 16.2908 2.16786e-007
        }
      }
    }
    JOINT LeftCollar
    {
      OFFSET 6.64893 27.3161 3.27471
      CHANNELS 6 Xposition Yposition Zposition Zrotation Xrotation Yrotation
      JOINT LeftUpArm
      {
        OFFSET 10.8584 2.41798 -0.945791
        CHANNELS 6 Xposition Yposition Zposition Zrotation Xrotation Yrotation
        JOINT LeftLowArm
        {
          OFFSET 3.77631 -24.5904 -1.70468
          CHANNELS 6 Xposition Yposition Zposition Zrotation Xrotation Yrotation
          JOINT LeftHand
          {
            OFFSET 1.01026 -21.1231 1.74131
            CHANNELS 6 Xposition Yposition Zposition Zrotation Xrotation Yrotation
            End Site
            {
              OFFSET 1.17583e-006 -9.81266 -2.89439e-008
            }
          }
        }
      }
    }
    JOINT RightCollar
    {
      OFFSET -6.11406 27.2248 4.23427
      CHANNELS 6 Xposition Yposition Zposition Zrotation Xrotation Yrotation
      JOINT RightUpArm
      {
        OFFSET -10.4566 2.3285 -0.910794
        CHANNELS 6 Xposition Yposition Zposition Zrotation Xrotation Yrotation
        JOINT RightLowArm
        {
          OFFSET -3.86856 -25.191 -1.74633
          CHANNELS 6 Xposition Yposition Zposition Zrotation Xrotation Yrotation
          JOINT RightHand
          {
            OFFSET -1.04759 -20.6242 1.75213
            CHANNELS 6 Xposition Yposition Zposition Zrotation Xrotation Yrotation
            End Site
            {
              OFFSET -2.03487e-006 -9.50367 -4.31372e-006
            }
          }
        }
      }
    }
  }
  JOINT LeftUpLeg
  {
    OFFSET 9 -3.38008e-006 -5.23007e-009
    CHANNELS 6 Xposition Yposition Zposition Zrotation Xrotation Yrotation
    JOINT LeftLowLeg
    {
      OFFSET -0.575 -51.431 3.90177
      CHANNELS 6 Xposition Yposition Zposition Zrotation Xrotation Yrotation
      JOINT LeftFoot
      {
        OFFSET 2.13082e-007 -43.5882 -3.90177
        CHANNELS 6 Xposition Yposition Zposition Zrotation Xrotation Yrotation
        End Site
        {
          OFFSET 7.44796e-007 -6.93413 15.0046
        }
      }
    }
  }
}
MOTION
Frames:	11
Frame Time:	0.0333333
50.6965 102.792 -16.4414 0.461512 -0.0525413 -0.452133 -9 6.86154e-007 -3.19544e-009 -5.42157 0.967109 -14.8552 0.575 -51.4311 3.90177 0.777472 1.94151 -1.00054 -7.46079e-007 -43.5882 -3.90177 -2.64088 0.992492 0.244381 1.23234e-007 14.8421 1.27319e-009 -0.656635 -10.4313 -2.14053 0.51659 29.8236 6.51843 -0.834582 9.65283 -0.299316 1.16803e-007 7.47049 6.44171e-007 0.0521364 0.255748 -0.0267688 6.64893 27.3161 3.27471 -2.94784 5.93879 -4.20517 10.8584 2.41798 -0.945791 95.6379 3.89309 42.0497 3.77631 -24.5904 -1.70468 15.7675 -10.9761 -18.6812 1.01026 -21.1231 1.74131 1.48852 9.96917 0.336138 -6.11406 27.2248 4.23427 -1.96452 7.32629 3.42623 -10.4566 2.3285 -0.910794 -90.3809 -2.10406 -38.7378 -3.86856 -25.191 -1.74633 -18.7102 -4.0688 60.3174 -1.04759 -20.6242 1.75213 1.6697 5.69968 -0.0876291 9 -3.38008e-006 -5.23007e-009 2.98496 0.684321 8.76691 -0.575 -51.431 3.90177 -2.32102 2.90893 -6.1133 2.13082e-007 -43.5882 -3.90177 -0.216624 0.162423 0.0226375 
50.6472 102.779 -16.45 0.253859 0.108979 -0.423555 -9 6.86154e-007 -3.19544e-009 -5.17796 0.875561 -14.7567 0.575 -51.4311 3.90177 0.785507 1.81783 -1.20945 -7.46079e-007 -43.5882 -3.90177 -2.61877 0.985109 0.242047 1.23234e-007 14.8421 1.27319e-009 -0.473078 -10.6594 -2.16631 0.51659 29.8236 6.51843 -1.12774 9.68473 -0.208001 1.16803e-007 7.47049 6.44171e-007 0.303064 0.26493 -0.102108 6.64893 27.3161 3.27471 -2.94784 5.93879 -4.20517 10.8584 2.41798 -0.945791 95.6282 3.90898 42.1038 3.77631 -24.5904 -1.70468 15.7785 -10.9775 -18.6894 1.01026 -21.1231 1.74131 1.60389 9.78308 0.331946 -6.11406 27.2248 4.23427 -1.96452 7.32629 3.42623 -10.4566 2.3285 -0.910794 -90.4084 -2.08871 -38.6708 -3.86856 -25.191 -1.74633 -18.6766 -4.04187 60.1043 -1.04759 -20.6242 1.75213 1.44072 5.77691 -0.110293 9 -3.38008e-006 -5.23007e-009 3.25163 0.498697 8.93869 -0.575 -51.431 3.90177 -2.39824 2.9378 -6.23083 2.13082e-007 -43.5882 -3.90177 -0.150131 0.103476 0.0156472 
50.5516 102.779 -16.5949 -0.18638 1.01336 -0.292771 -9 6.86154e-007 -3.19544e-009 -4.66346 -0.0184578 -14.4562 0.575 -51.4311 3.90177 0.755221 1.64457 -1.6518 -7.46079e-007 -43.5882 -3.90177 -2.42401 1.23672 0.224706 1.23234e-007 14.8421 1.2732e-009 -0.0843401 -11.6726 -2.29657 0.51659 29.8236 6.51843 -0.731879 9.65553 -0.403123 1.16803e-007 7.47049 6.44171e-007 -0.0392339 0.32716 -0.0703572 6.64893 27.3161 3.27471 -2.94784 5.93879 -4.20517 10.8584 2.41798 -0.945791 95.5457 3.9696 42.1437 3.77631 -24.5904 -1.70468 15.7865 -11.018 -18.311 1.01026 -21.1231 1.74131 2.22788 9.38854 0.337902 -6.11406 27.2248 4.23427 -1.96452 7.32629 3.42623 -10.4566 2.3285 -0.910794 -90.4154 -1.99667 -38.407 -3.86856 -25.191 -1.74633 -18.5457 -3.93312 59.4422 -1.04759 -20.6242 1.75213 1.05415 6.0098 -0.1562 9 -3.38008e-006 -5.23007e-009 3.81886 -0.773334 9.19783 -0.575 -51.431 3.90177 -2.44722 3.5536 -6.5478 2.13082e-007 -43.5882 -3.90177 -0.00288274 -0.167167 -0.000659192 
50.5275 102.776 -16.5613 -0.168209 0.909597 -0.505739 -9 6.86154e-007 -3.19544e-009 -4.64908 0.102989 -14.4128 0.575 -51.4311 3.90177 0.748947 1.56579 -1.45801 -7.46079e-007 -43.5882 -3.90177 -2.49363 1.17895 0.23124 1.23234e-007 14.8421 1.27321e-009 -0.163068 -11.6935 -2.09669 0.51659 29.8236 6.51843 -0.678143 9.69455 -0.442232 1.16803e-007 7.47049 6.44171e-007 0.0191116 0.38353 -0.0969764 6.64893 27.3161 3.27471 -2.94784 5.93879 -4.20517 10.8584 2.41798 -0.945791 95.5353 4.00705 42.0003 3.77631 -24.5904 -1.70468 15.7651 -11.0356 -17.9132 1.01026 -21.1231 1.74131 2.64838 9.17717 0.352482 -6.11406 27.2248 4.23427 -1.96452 7.32629 3.42623 -10.4566 2.3285 -0.910794 -90.3563 -2.03536 -38.6216 -3.86856 -25.191 -1.74633 -18.6264 -4.00221 59.9353 -1.04759 -20.6242 1.75213 0.951049 5.96164 -0.159748 9 -3.38008e-006 -5.23007e-009 3.81962 -0.666441 9.21834 -0.575 -51.431 3.90177 -2.43828 3.66928 -6.43682 2.13082e-007 -43.5882 -3.90177 -0.0743817 -0.187569 0.00624572 
50.488 102.789 -16.5574 -0.224891 0.936219 -0.525518 -9 6.86154e-007 -3.19544e-009 -4.5412 0.0763289 -14.3219 0.575 -51.4311 3.90177 0.681291 1.55579 -1.55729 -7.46079e-007 -43.5882 -3.90177 -2.45933 1.15293 0.227645 1.23234e-007 14.8421 1.27321e-009 -0.242294 -11.8645 -2.10817 0.51659 29.8236 6.51843 -0.859925 9.80513 -0.406574 1.16803e-007 7.47049 6.44171e-007 0.232251 0.461093 -0.174558 6.64893 27.3161 3.27471 -2.94784 5.93879 -4.20517 10.8584 2.41798 -0.945791 95.4334 4.04705 41.759 3.77631 -24.5904 -1.70468 15.6526 -11.0026 -16.9454 1.01026 -21.1231 1.74131 3.99544 8.43192 0.391334 -6.11406 27.2248 4.23427 -1.96452 7.32629 3.42623 -10.4566 2.3285 -0.910794 -90.26 -2.01717 -38.4825 -3.86856 -25.191 -1.74633 -18.5812 -3.98244 59.9532 -1.04759 -20.6242 1.75213 1.16955 6.03749 -0.150111 9 -3.38008e-006 -5.23007e-009 3.90644 -0.74586 9.24841 -0.575 -51.431 3.90177 -2.41778 3.79243 -6.495 2.13082e-007 -43.5882 -3.90177 -0.100376 -0.174151 0.0088976 
50.457 102.767 -16.5488 -0.202188 0.930361 -0.482331 -9 6.86154e-007 -3.19544e-009 -4.57054 0.100065 -14.3756 0.575 -51.4311 3.90177 0.720683 1.55139 -1.57434 -7.46079e-007 -43.5882 -3.90177 -2.42423 1.18311 0.224349 1.23234e-007 14.8421 1.27322e-009 -0.312978 -11.9543 -2.15219 0.51659 29.8236 6.51843 -0.982025 9.86901 -0.4365 1.16803e-007 7.47049 6.44171e-007 0.454298 0.41692 -0.293823 6.64893 27.3161 3.27471 -2.94784 5.93879 -4.20517 10.8584 2.41798 -0.945791 95.4726 3.9439 42.4249 3.77631 -24.5904 -1.70468 15.9676 -11.2356 -18.2329 1.01026 -21.1231 1.74131 2.29049 9.40066 0.343525 -6.11406 27.2248 4.23427 -1.96452 7.32629 3.42623 -10.4566 2.3285 -0.910794 -90.2744 -1.93956 -38.3336 -3.86856 -25.191 -1.74633 -18.565 -3.96028 59.6053 -1.04759 -20.6242 1.75213 1.01018 5.95597 -0.155117 9 -3.38008e-006 -5.23007e-009 3.89121 -0.57307 9.27525 -0.575 -51.431 3.90177 -2.48561 3.44137 -6.44819 2.13082e-007 -43.5882 -3.90177 0.113864 -0.293052 -0.0126 
50.4303 102.774 -16.54 -0.20822 0.88066 -0.444607 -9 6.86154e-007 -3.19544e-009 -4.53706 0.151842 -14.3487 0.575 -51.4311 3.90177 0.697568 1.55565 -1.58956 -7.46079e-007 -43.5882 -3.90177 -2.39913 1.21456 0.222038 1.23234e-007 14.8421 1.27323e-009 -0.381708 -11.941 -2.22651 0.51659 29.8236 6.51843 -0.814995 10.0043 -0.529317 1.16803e-007 7.47049 6.44171e-007 0.336474 0.283693 -0.29395 6.64893 27.3161 3.27471 -2.94784 5.93879 -4.20517 10.8584 2.41798 -0.945791 95.2446 4.03819 41.7815 3.77631 -24.5904 -1.70468 15.5969 -10.9839 -16.57 1.01026 -21.1231 1.74131 4.0515 8.19447 0.382352 -6.11406 27.2248 4.23427 -1.96452 7.32629 3.42623 -10.4566 2.3285 -0.910794 -90.211 -1.90321 -38.2872 -3.86856 -25.191 -1.74633 -18.6155 -3.9723 59.5082 -1.04759 -20.6242 1.75213 1.01183 5.75446 -0.13975 9 -3.38008e-006 -5.23007e-009 3.90197 -0.513499 9.2594 -0.575 -51.431 3.90177 -2.45177 3.41976 -6.4748 2.13082e-007 -43.5882 -3.90177 0.107746 -0.253563 -0.0117818 
50.4141 102.785 -16.5525 -0.228803 0.859728 -0.376599 -9 6.86154e-007 -3.19543e-009 -4.51333 0.167995 -14.3491 0.575 -51.4311 3.90177 0.703238 1.57608 -1.63255 -7.46079e-007 -43.5882 -3.90177 -2.3909 1.23008 0.221289 1.23234e-007 14.8421 1.27324e-009 -0.417761 -11.8782 -2.30264 0.51659 29.8236 6.51843 -0.717136 9.93265 -0.549537 1.16803e-007 7.47049 6.44171e-007 0.364848 0.222122 -0.278448 6.64893 27.3161 3.27471 -2.94784 5.93879 -4.20517 10.8584 2.41798 -0.945791 95.0704 4.07305 41.8409 3.77631 -24.5904 -1.70468 15.6117 -10.9919 -16.6702 1.01026 -21.1231 1.74131 3.92192 8.22154 0.378286 -6.11406 27.2248 4.23427 -1.96452 7.32629 3.42623 -10.4566 2.3285 -0.910794 -90.1574 -1.84974 -38.3534 -3.86856 -25.191 -1.74633 -18.6606 -3.99948 59.6387 -1.04759 -20.6242 1.75213 1.18886 5.82217 -0.132154 9 -3.38008e-006 -5.23007e-009 3.91781 -0.526341 9.24394 -0.575 -51.431 3.90177 -2.43227 3.43773 -6.58545 2.13082e-007 -43.5882 -3.90177 0.0361553 -0.123816 -0.00420773 
50.4038 102.77 -16.5754 -0.237201 0.882702 -0.283511 -9 6.86154e-007 -3.19543e-009 -4.48677 0.163906 -14.3383 0.575 -51.4311 3.90177 0.676902 1.55683 -1.78644 -7.46079e-007 -43.5882 -3.90177 -2.4615 1.07725 0.227367 1.23234e-007 14.8421 1.27325e-009 -0.413054 -11.8793 -2.42049 0.51659 29.8236 6.51843 -0.688972 9.9851 -0.518458 1.16803e-007 7.47049 6.44171e-007 0.475743 0.149791 -0.255227 6.64893 27.3161 3.27471 -2.94784 5.93879 -4.20517 10.8584 2.41798 -0.945791 94.8623 4.06543 42.0286 3.77631 -24.5904 -1.70468 15.691 -11.0236 -17.2571 1.01026 -21.1231 1.74131 3.28917 8.56865 0.355866 -6.11406 27.2248 4.23427 -1.96452 7.32629 3.42623 -10.4566 2.3285 -0.910794 -90.2268 -1.83907 -38.279 -3.86856 -25.191 -1.74633 -18.6337 -3.976 59.3464 -1.04759 -20.6242 1.75213 1.49694 5.82547 -0.11026 9 -3.38008e-006 -5.23007e-009 3.93287 -0.6484 9.24324 -0.575 -51.431 3.90177 -2.42433 3.62007 -6.67487 2.13082e-007 -43.5882 -3.90177 0.114458 -0.276412 -0.0125682 
50.3975 102.765 -16.5902 -0.24622 0.85653 -0.269776 -9 6.86154e-007 -3.19543e-009 -4.49044 0.18292 -14.3574 0.575 -51.4311 3.90177 0.711219 1.55578 -1.7377 -7.46079e-007 -43.5882 -3.90177 -2.45477 1.12616 0.227017 1.23234e-007 14.8421 1.27327e-009 -0.445104 -11.8194 -2.47412 0.51659 29.8236 6.51843 -0.669054 10.0441 -0.5064 1.16803e-007 7.47049 6.44171e-007 0.503884 0.0492282 -0.239216 6.64893 27.3161 3.27471 -2.94784 5.93879 -4.20517 10.8584 2.41798 -0.945791 94.5713 3.9929 42.3224 3.77631 -24.5904 -1.70468 15.745 -11.1374 -16.6947 1.01026 -21.1231 1.74131 3.85133 8.3963 0.378807 -6.11406 27.2248 4.23427 -1.96452 7.32629 3.42623 -10.4566 2.3285 -0.910794 -90.1582 -1.83346 -38.2116 -3.86856 -25.191 -1.74633 -18.6206 -3.96119 59.21 -1.04759 -20.6242 1.75213 1.45652 5.78672 -0.110083 9 -3.38008e-006 -5.23007e-009 3.94355 -0.624966 9.2423 -0.575 -51.431 3.90177 -2.41315 3.59705 -6.63175 2.13082e-007 -43.5882 -3.90177 0.140518 -0.32056 -0.0152751 
50.4007 102.764 -16.6183 -0.170209 0.772414 -0.314929 -9 6.86154e-007 -3.19543e-009 -4.57891 0.198395 -14.4094 0.575 -51.4311 3.90177 0.720986 1.66069 -1.64924 -7.46079e-007 -43.5882 -3.90177 -2.47288 1.08428 0.228526 1.23234e-007 14.8421 1.27328e-009 -0.586294 -11.6703 -2.44127 0.51659 29.8236 6.51843 -0.640436 10.0365 -0.504762 1.16803e-007 7.47049 6.44171e-007 0.45024 0.0450278 -0.216323 6.64893 27.3161 3.27471 -2.94784 5.93879 -4.20517 10.8584 2.41798 -0.945791 94.5132 3.90756 42.7421 3.77631 -24.5904 -1.70468 15.9201 -11.2886 -17.0951 1.01026 -21.1231 1.74131 3.23948 8.61672 0.356714 -6.11406 27.2248 4.23427 -1.96452 7.32629 3.42623 -10.4566 2.3285 -0.910794 -90.0585 -1.8124 -38.0742 -3.86856 -25.191 -1.74633 -18.579 -3.93752 59.1586 -1.04759 -20.6242 1.75213 1.45664 5.80971 -0.111904 9 -3.38008e-006 -5.23007e-009 3.85789 -0.496518 9.20623 -0.575 -51.431 3.90177 -2.41678 3.46588 -6.57306 2.13082e-007 -43.5882 -3.90177 0.119918 -0.255366 -0.0129547 
